$ /opt/homebrew/bin/ffmpeg -hide_banner -i /Users/fan/Documents/视频工厂/复审包_review_packs/20260430_AI做PPT踩坑_成品候选_v3_ai_ppt_pitfall_finished_candidate_v3/AI做PPT踩坑_成品候选_v3_full.mp4 -af volumedetect -f null -

STDOUT:


STDERR:
Input #0, mov,mp4,m4a,3gp,3g2,mj2, from '/Users/fan/Documents/视频工厂/复审包_review_packs/20260430_AI做PPT踩坑_成品候选_v3_ai_ppt_pitfall_finished_candidate_v3/AI做PPT踩坑_成品候选_v3_full.mp4':
  Metadata:
    major_brand     : isom
    minor_version   : 512
    compatible_brands: isomiso2avc1mp41
    encoder         : Lavf62.12.100
  Duration: 00:02:30.00, start: 0.000000, bitrate: 476 kb/s
  Stream #0:0[0x1](und): Video: h264 (High) (avc1 / 0x31637661), yuv420p(progressive), 720x1280, 366 kb/s, 25 fps, 25 tbr, 12800 tbn (default)
    Metadata:
      handler_name    : VideoHandler
      encoder         : Lavc62.28.100 libx264
  Stream #0:1[0x2](und): Audio: aac (LC) (mp4a / 0x6134706D), 24000 Hz, mono, fltp, 104 kb/s (default)
    Metadata:
      handler_name    : SoundHandler
[Parsed_volumedetect_0 @ 0xc8cc55200] n_samples: 0
Stream mapping:
  Stream #0:0 -> #0:0 (h264 (native) -> wrapped_avframe (native))
  Stream #0:1 -> #0:1 (aac (native) -> pcm_s16le (native))
Press [q] to stop, [?] for help
Output #0, null, to 'pipe:':
  Metadata:
    major_brand     : isom
    minor_version   : 512
    compatible_brands: isomiso2avc1mp41
    encoder         : Lavf62.12.100
  Stream #0:0(und): Video: wrapped_avframe, yuv420p(progressive), 720x1280, q=2-31, 200 kb/s, 25 fps, 25 tbn (default)
    Metadata:
      encoder         : Lavc62.28.100 wrapped_avframe
      handler_name    : VideoHandler
  Stream #0:1(und): Audio: pcm_s16le, 24000 Hz, mono, s16, 384 kb/s (default)
    Metadata:
      encoder         : Lavc62.28.100 pcm_s16le
      handler_name    : SoundHandler
[vf#0:0 @ 0xc8d0dc000] Reconfiguring filter graph because video parameters changed to yuv420p(tv, bt709), 720x1280, unspecified alph
frame= 2032 fps=0.0 q=-0.0 size=N/A time=00:01:21.28 bitrate=N/A speed= 161x elapsed=0:00:00.50
[Parsed_volumedetect_0 @ 0xc8cc55980] n_samples: 3600384
[Parsed_volumedetect_0 @ 0xc8cc55980] mean_volume: -23.9 dB
[Parsed_volumedetect_0 @ 0xc8cc55980] max_volume: -6.0 dB
[Parsed_volumedetect_0 @ 0xc8cc55980] histogram_5db: 1
[Parsed_volumedetect_0 @ 0xc8cc55980] histogram_6db: 46
[Parsed_volumedetect_0 @ 0xc8cc55980] histogram_7db: 329
[Parsed_volumedetect_0 @ 0xc8cc55980] histogram_8db: 1307
[Parsed_volumedetect_0 @ 0xc8cc55980] histogram_9db: 3881
[out#0/null @ 0xc8cc54300] video:1552KiB audio:7032KiB subtitle:0KiB other streams:0KiB global headers:0KiB muxing overhead: unknown
frame= 3749 fps=0.0 q=-0.0 Lsize=N/A time=00:02:29.96 bitrate=N/A speed= 174x elapsed=0:00:00.86
